<svg xmlns="http://www.w3.org/2000/svg" viewBox="0 0 167.62 36.89"><defs><style>.cls-1{fill:#fff;}</style></defs><title>Asset 4</title><g id="Layer_2" data-name="Layer 2"><g id="Capa_1" data-name="Capa 1"><path class="cls-1" d="M16.37,19.75a14.62,14.62,0,0,1,.71,1.91,13.69,13.69,0,0,1,.42,2,15.78,15.78,0,0,1-3.11.83,21.23,21.23,0,0,1-3,.2,12.45,12.45,0,0,1-4.95-.92A9.92,9.92,0,0,1,2.9,21.2,11.08,11.08,0,0,1,.73,17.3,15.86,15.86,0,0,1,0,12.38,15.39,15.39,0,0,1,.76,7.45,11.62,11.62,0,0,1,3,3.52,10,10,0,0,1,6.52.93,11.81,11.81,0,0,1,11.32,0a20.59,20.59,0,0,1,2.94.2,12.63,12.63,0,0,1,2.9.83A7.19,7.19,0,0,1,16.77,3c-.23.63-.47,1.27-.73,1.91A14.46,14.46,0,0,0,14,4.32a11.93,11.93,0,0,0-2.13-.17A6,6,0,0,0,7,6.23Q5.25,8.3,5.25,12.38q0,8.1,6.87,8.1a12.53,12.53,0,0,0,2.16-.16A14.22,14.22,0,0,0,16.37,19.75Z"/><path class="cls-1" d="M27.89,24.67A9,9,0,0,1,24.25,24a6.89,6.89,0,0,1-2.55-1.9,8.06,8.06,0,0,1-1.53-2.83,11.74,11.74,0,0,1-.52-3.52,12.06,12.06,0,0,1,.52-3.56A8.16,8.16,0,0,1,21.7,9.31,7,7,0,0,1,24.25,7.4a8.85,8.85,0,0,1,3.64-.69,9,9,0,0,1,3.65.69,7.26,7.26,0,0,1,2.59,1.91,8.16,8.16,0,0,1,1.53,2.87,12.4,12.4,0,0,1,.49,3.56,12.08,12.08,0,0,1-.49,3.52,8.06,8.06,0,0,1-1.53,2.83A7.12,7.12,0,0,1,31.54,24,9.14,9.14,0,0,1,27.89,24.67Zm0-3.59a2.85,2.85,0,0,0,2.67-1.38,7.88,7.88,0,0,0,.81-4,7.93,7.93,0,0,0-.81-4,2.85,2.85,0,0,0-2.67-1.38,2.82,2.82,0,0,0-2.64,1.38,7.92,7.92,0,0,0-.82,4,7.87,7.87,0,0,0,.82,4A2.82,2.82,0,0,0,27.89,21.08Z"/><path class="cls-1" d="M39.71,7.1C40,7,40.32,7,40.64,7a8,8,0,0,1,1,0,7.49,7.49,0,0,1,1,0c.29,0,.59.08.9.14a2.89,2.89,0,0,1,.18.49q.07.31.15.66c0,.23.08.46.11.68s.07.41.09.56a7.61,7.61,0,0,1,.79-1A6,6,0,0,1,46,7.6,5.83,5.83,0,0,1,47.34,7,5.31,5.31,0,0,1,49,6.71a5.71,5.71,0,0,1,4.4,1.59q1.49,1.59,1.48,5v11a14.65,14.65,0,0,1-2.36.2,14.53,14.53,0,0,1-2.35-.2v-9.7a5.69,5.69,0,0,0-.55-2.75,2,2,0,0,0-1.91-1,4.32,4.32,0,0,0-1.16.16,2.43,2.43,0,0,0-1.08.65A3.52,3.52,0,0,0,44.72,13a7.06,7.06,0,0,0-.3,2.26v9a14.65,14.65,0,0,1-2.36.2,14.53,14.53,0,0,1-2.35-.2Z"/><path class="cls-1" d="M62.78,17.13A3.62,3.62,0,0,0,64.17,20a5.6,5.6,0,0,0,3.32.9,13.26,13.26,0,0,0,2.31-.22A13.16,13.16,0,0,0,72,20.09a8,8,0,0,1,.63,1.59,7.89,7.89,0,0,1,.3,2,16,16,0,0,1-5.84,1A11.15,11.15,0,0,1,63,24a7.2,7.2,0,0,1-2.79-1.84,7.31,7.31,0,0,1-1.59-2.8,11.56,11.56,0,0,1-.52-3.56,11.72,11.72,0,0,1,.53-3.55,8.35,8.35,0,0,1,1.58-2.89,7.51,7.51,0,0,1,2.59-1.94,8.44,8.44,0,0,1,3.6-.71,7.66,7.66,0,0,1,3.19.63A7,7,0,0,1,72,9.06a7.28,7.28,0,0,1,1.48,2.61,10.37,10.37,0,0,1,.5,3.24c0,.42,0,.83,0,1.24s-.08.74-.12,1Zm6.74-3.29a4.22,4.22,0,0,0-.88-2.57,2.8,2.8,0,0,0-2.28-1,3.28,3.28,0,0,0-2.52.93,4.35,4.35,0,0,0-1,2.62Z"/><path class="cls-1" d="M89,20.22a6.8,6.8,0,0,1,.66,1.54A7.14,7.14,0,0,1,90,23.84a10.61,10.61,0,0,1-2.49.68,19,19,0,0,1-2.43.15A9.62,9.62,0,0,1,81.3,24a7.3,7.3,0,0,1-2.64-1.88,8,8,0,0,1-1.57-2.84,11.33,11.33,0,0,1-.53-3.57,11.75,11.75,0,0,1,.51-3.52,8.07,8.07,0,0,1,1.56-2.85A7.35,7.35,0,0,1,81.24,7.4a8.86,8.86,0,0,1,3.62-.69c.48,0,.93,0,1.34,0a10.92,10.92,0,0,1,1.18.13c.37.07.75.16,1.13.27s.79.25,1.26.43a8.57,8.57,0,0,1-.2,1.71,7.34,7.34,0,0,1-.63,1.81,11.52,11.52,0,0,0-1.74-.45,10.91,10.91,0,0,0-1.71-.12,3.69,3.69,0,0,0-3.11,1.35,6.17,6.17,0,0,0-1,3.83,5.63,5.63,0,0,0,1.13,3.92,3.93,3.93,0,0,0,3,1.23l.91,0a7.34,7.34,0,0,0,.82-.08,5.31,5.31,0,0,0,.81-.2Z"/><path class="cls-1" d="M93.59,10.69H91.43L91.26,10l6.21-7.94h.76v5h4a7.21,7.21,0,0,1,.13.9,7.45,7.45,0,0,1,0,.83,8.77,8.77,0,0,1,0,.9,7.53,7.53,0,0,1-.13,1h-4v6.74a6.71,6.71,0,0,0,.17,1.66,2.52,2.52,0,0,0,.48,1,1.53,1.53,0,0,0,.78.49,4,4,0,0,0,1.1.14,5.33,5.33,0,0,0,1-.09l.84-.15a6.39,6.39,0,0,1,.34,1.32A9.36,9.36,0,0,1,103,23c0,.24,0,.45,0,.61s0,.33,0,.48a13.18,13.18,0,0,1-3.15.37,6.75,6.75,0,0,1-4.62-1.41c-1.06-.94-1.59-2.48-1.59-4.6Z"/><path class="cls-1" d="M114.24,13a2.69,2.69,0,0,0-.27-1.29,1.9,1.9,0,0,0-.73-.78,3.07,3.07,0,0,0-1.14-.39,11.63,11.63,0,0,0-1.52-.1,11.86,11.86,0,0,0-3.81.7,8.51,8.51,0,0,1-.7-1.63,6.06,6.06,0,0,1-.23-1.82,17.09,17.09,0,0,1,2.92-.73,16.73,16.73,0,0,1,2.72-.23,8.05,8.05,0,0,1,5.4,1.66q1.94,1.65,1.94,5.31v10c-.78.24-1.72.47-2.82.7a19.41,19.41,0,0,1-3.76.33,15,15,0,0,1-3.1-.3,6.54,6.54,0,0,1-2.42-1,4.57,4.57,0,0,1-1.56-1.79,5.92,5.92,0,0,1-.55-2.69,5,5,0,0,1,.68-2.67,5.2,5.2,0,0,1,1.76-1.73,7.85,7.85,0,0,1,2.41-.93,12.56,12.56,0,0,1,2.65-.28c.64,0,1.35,0,2.13.1Zm0,3.42-.87-.12c-.31,0-.58-.05-.83-.05a4.86,4.86,0,0,0-2.57.59,2,2,0,0,0-1,1.87,2,2,0,0,0,1.25,2,4,4,0,0,0,1.09.27c.39,0,.73,0,1,0a5.51,5.51,0,0,0,1-.08l.87-.15Z"/><path class="cls-1" d="M130.9,13.11a10.59,10.59,0,0,1,.2,2,10.74,10.74,0,0,1-.2,2.06h-8.46a9.84,9.84,0,0,1-.2-2,10,10,0,0,1,.2-2.06Z"/><path class="cls-1" d="M139.63,4.52h-5.94a11,11,0,0,1-.2-2.1,10.48,10.48,0,0,1,.2-2h16.77a10.48,10.48,0,0,1,.19,2,11,11,0,0,1-.19,2.1h-6V24.27l-1.19.11c-.4,0-.79.05-1.16.05l-1.22,0a12.1,12.1,0,0,1-1.31-.13Z"/><path class="cls-1" d="M153.64.4h13.55a10.48,10.48,0,0,1,.2,2,11,11,0,0,1-.2,2.1h-8.7V9.69h6.9a10.63,10.63,0,0,1,.2,2.06,10.36,10.36,0,0,1-.2,2.09h-6.9v6.31h8.93a10.59,10.59,0,0,1,.2,2,10.9,10.9,0,0,1-.2,2.09H153.64Z"/><path class="cls-1" d="M3.89,34.08a2.33,2.33,0,0,1,.22.66,3.34,3.34,0,0,1-.68.21,4.59,4.59,0,0,1-.76.06,3,3,0,0,1-1.11-.2,2.38,2.38,0,0,1-.84-.58,2.51,2.51,0,0,1-.52-.92A3.53,3.53,0,0,1,0,32.1,3.71,3.71,0,0,1,.2,30.86a2.6,2.6,0,0,1,.52-.94,2.27,2.27,0,0,1,.83-.6,2.82,2.82,0,0,1,1.11-.21,4.22,4.22,0,0,1,.77.06,5.25,5.25,0,0,1,.58.16,1.61,1.61,0,0,1-.06.33c0,.11-.08.22-.13.33l-.23-.07-.23-.05-.29,0H2.72a1.62,1.62,0,0,0-1.35.59A2.6,2.6,0,0,0,.89,32.1a3.1,3.1,0,0,0,.14,1,1.9,1.9,0,0,0,.38.69,1.51,1.51,0,0,0,.59.4,2.13,2.13,0,0,0,.78.14,2.79,2.79,0,0,0,1.11-.22Z"/><path class="cls-1" d="M5.47,33.07a1.38,1.38,0,0,0,.35,1,1.35,1.35,0,0,0,1,.31,2.91,2.91,0,0,0,1.07-.2,1.1,1.1,0,0,1,.11.29c0,.11,0,.23,0,.34a2.6,2.6,0,0,1-.58.16,3.69,3.69,0,0,1-.69.06,2.51,2.51,0,0,1-1-.16,1.65,1.65,0,0,1-.65-.43,1.77,1.77,0,0,1-.38-.67,2.8,2.8,0,0,1-.12-.84,2.86,2.86,0,0,1,.12-.85,1.76,1.76,0,0,1,.35-.68,1.61,1.61,0,0,1,.6-.46,1.87,1.87,0,0,1,.85-.17,1.72,1.72,0,0,1,.74.14,1.49,1.49,0,0,1,.53.39,1.75,1.75,0,0,1,.33.6,2.56,2.56,0,0,1,.11.75,1.85,1.85,0,0,1,0,.23c0,.08,0,.15,0,.21Zm2-.58a1.54,1.54,0,0,0-.06-.43,1.27,1.27,0,0,0-.17-.35.89.89,0,0,0-.3-.24.82.82,0,0,0-.42-.1.92.92,0,0,0-.74.3,1.4,1.4,0,0,0-.32.82Z"/><path class="cls-1" d="M9.22,30.84l.17,0h.34l.16,0c0,.08,0,.19,0,.32s0,.25,0,.34a1.56,1.56,0,0,1,.2-.27,1.61,1.61,0,0,1,.28-.24,1.82,1.82,0,0,1,.37-.18,1.63,1.63,0,0,1,.45-.06,1.24,1.24,0,0,1,1,.4,1.75,1.75,0,0,1,.34,1.18v2.58a1.2,1.2,0,0,1-.2,0H12a1.06,1.06,0,0,1-.2,0V32.55a1.61,1.61,0,0,0-.17-.83.62.62,0,0,0-.56-.27,1.16,1.16,0,0,0-.42.08,1.07,1.07,0,0,0-.35.25,1.18,1.18,0,0,0-.24.43,2,2,0,0,0-.09.64v2.06a1.2,1.2,0,0,1-.2,0H9.42a1.2,1.2,0,0,1-.2,0Z"/><path class="cls-1" d="M13.88,31.47h-.62l0-.11,1.37-1.53h.06v1h1a1.39,1.39,0,0,1,0,.3v.17l0,.16h-1v1.86a3.7,3.7,0,0,0,0,.53.89.89,0,0,0,.09.3.35.35,0,0,0,.19.15,1.12,1.12,0,0,0,.29,0,1.06,1.06,0,0,0,.25,0l.21,0a1.21,1.21,0,0,1,.07.33c0,.11,0,.2,0,.29a2.79,2.79,0,0,1-.33.06l-.37,0a1.33,1.33,0,0,1-.9-.28,1.18,1.18,0,0,1-.32-.92Z"/><path class="cls-1" d="M16.49,30.84l.17,0H17l.16,0c0,.08,0,.19.05.32s0,.24,0,.33a1.64,1.64,0,0,1,.44-.47,1.15,1.15,0,0,1,.71-.2h.24l0,.15v.17a1.34,1.34,0,0,1,0,.2l0,.2-.13,0h-.1a1.35,1.35,0,0,0-.41.06.84.84,0,0,0-.35.21,1,1,0,0,0-.25.42,2.09,2.09,0,0,0-.09.67v2a1.08,1.08,0,0,1-.19,0H16.7a1.33,1.33,0,0,1-.21,0Z"/><path class="cls-1" d="M20.9,35a1.92,1.92,0,0,1-.83-.16,1.69,1.69,0,0,1-.6-.45,1.76,1.76,0,0,1-.35-.68,3,3,0,0,1,0-1.68,1.75,1.75,0,0,1,.95-1.13,1.92,1.92,0,0,1,.83-.16,2,2,0,0,1,.83.16A1.75,1.75,0,0,1,22.68,32a3,3,0,0,1,0,1.68,1.76,1.76,0,0,1-.35.68,1.69,1.69,0,0,1-.6.45A2,2,0,0,1,20.9,35Zm0-.63a.92.92,0,0,0,.81-.39A2.07,2.07,0,0,0,22,32.88a2,2,0,0,0-.26-1.1.92.92,0,0,0-.81-.39.91.91,0,0,0-.81.39,2,2,0,0,0-.25,1.1A2.07,2.07,0,0,0,20.09,34,.91.91,0,0,0,20.9,34.38Z"/><path class="cls-1" d="M28.16,29.1a1.2,1.2,0,0,1,.2,0h.39a1.08,1.08,0,0,1,.19,0v5.7a5.16,5.16,0,0,1-.67.15,5.35,5.35,0,0,1-.84.06,3.1,3.1,0,0,1-.81-.11,1.72,1.72,0,0,1-.67-.35,1.68,1.68,0,0,1-.45-.64,2.46,2.46,0,0,1-.17-1,2.56,2.56,0,0,1,.15-.89,2,2,0,0,1,.41-.7,2,2,0,0,1,.65-.45,2.24,2.24,0,0,1,.84-.16,2.85,2.85,0,0,1,.41,0,1.7,1.7,0,0,1,.37.08Zm0,2.43a1.69,1.69,0,0,0-.34-.09,2.38,2.38,0,0,0-.39,0,1.41,1.41,0,0,0-.57.11,1,1,0,0,0-.39.33,1.48,1.48,0,0,0-.23.49,2.37,2.37,0,0,0-.08.61A1.45,1.45,0,0,0,26.52,34a1.32,1.32,0,0,0,.95.33l.38,0a1.31,1.31,0,0,0,.31-.06Z"/><path class="cls-1" d="M30.71,33.07a1.33,1.33,0,0,0,.35,1,1.35,1.35,0,0,0,1,.31,3,3,0,0,0,1.07-.2,1.6,1.6,0,0,1,.11.29,2,2,0,0,1,0,.34,2.38,2.38,0,0,1-.57.16A3.73,3.73,0,0,1,32,35a2.45,2.45,0,0,1-.95-.16,1.68,1.68,0,0,1-.66-.43,1.75,1.75,0,0,1-.37-.67,2.8,2.8,0,0,1-.12-.84,3.24,3.24,0,0,1,.11-.85,1.93,1.93,0,0,1,.36-.68,1.61,1.61,0,0,1,.6-.46,1.87,1.87,0,0,1,.85-.17,1.72,1.72,0,0,1,.74.14,1.49,1.49,0,0,1,.53.39,1.93,1.93,0,0,1,.33.6,2.56,2.56,0,0,1,.11.75c0,.07,0,.15,0,.23s0,.15,0,.21Zm2-.58a1.54,1.54,0,0,0-.06-.43,1.06,1.06,0,0,0-.18-.35.76.76,0,0,0-.29-.24.82.82,0,0,0-.42-.1.94.94,0,0,0-.75.3,1.46,1.46,0,0,0-.31.82Z"/><path class="cls-1" d="M36.32,29.21l.2,0h.42l.19,0v5.7a1.08,1.08,0,0,1-.19,0h-.42a1.2,1.2,0,0,1-.2,0Z"/><path class="cls-1" d="M38.39,30.84l.17,0h.33l.17,0c0,.08,0,.19,0,.32a2.47,2.47,0,0,1,0,.34,1.56,1.56,0,0,1,.2-.27,1.61,1.61,0,0,1,.28-.24,1.82,1.82,0,0,1,.37-.18,1.53,1.53,0,0,1,.45-.06,1.26,1.26,0,0,1,1,.4,1.81,1.81,0,0,1,.33,1.18v2.58a1,1,0,0,1-.19,0h-.4a1.08,1.08,0,0,1-.19,0V32.55a1.5,1.5,0,0,0-.18-.83.6.6,0,0,0-.55-.27,1.16,1.16,0,0,0-.42.08,1.07,1.07,0,0,0-.35.25,1.18,1.18,0,0,0-.24.43,2,2,0,0,0-.1.64v2.06a1,1,0,0,1-.19,0h-.39a1.06,1.06,0,0,1-.2,0Z"/><path class="cls-1" d="M42.9,30.84l.17,0h.33l.17,0c0,.08,0,.19,0,.32a2.47,2.47,0,0,1,0,.34,1.56,1.56,0,0,1,.2-.27,1.31,1.31,0,0,1,.28-.24,1.82,1.82,0,0,1,.37-.18,1.53,1.53,0,0,1,.45-.06,1.26,1.26,0,0,1,1,.4,1.81,1.81,0,0,1,.33,1.18v2.58a1,1,0,0,1-.19,0h-.4a1.08,1.08,0,0,1-.19,0V32.55a1.5,1.5,0,0,0-.18-.83.6.6,0,0,0-.55-.27,1.16,1.16,0,0,0-.42.08,1,1,0,0,0-.35.25,1.18,1.18,0,0,0-.24.43,1.76,1.76,0,0,0-.1.64v2.06a1,1,0,0,1-.19,0H43.1a1.06,1.06,0,0,1-.2,0Z"/><path class="cls-1" d="M49.06,35a1.92,1.92,0,0,1-.83-.16,1.69,1.69,0,0,1-.6-.45,1.76,1.76,0,0,1-.35-.68,3,3,0,0,1,0-1.68,1.75,1.75,0,0,1,.95-1.13,1.92,1.92,0,0,1,.83-.16,2,2,0,0,1,.83.16,1.72,1.72,0,0,1,.6.46,1.86,1.86,0,0,1,.35.67,3,3,0,0,1,0,1.68,1.91,1.91,0,0,1-.35.68,1.69,1.69,0,0,1-.6.45A2,2,0,0,1,49.06,35Zm0-.63a.92.92,0,0,0,.81-.39,2.07,2.07,0,0,0,.26-1.11,2,2,0,0,0-.26-1.1.92.92,0,0,0-.81-.39.9.9,0,0,0-.81.39,2,2,0,0,0-.26,1.1A2.07,2.07,0,0,0,48.25,34,.9.9,0,0,0,49.06,34.38Z"/><path class="cls-1" d="M51.25,30.84l.23,0h.44l.21,0,1.11,3.36,1.12-3.36.2,0H55l.23,0-1.59,4.07a1.52,1.52,0,0,1-.21,0H53a1.25,1.25,0,0,1-.19,0Z"/><path class="cls-1" d="M58,32.23a.77.77,0,0,0-.24-.65,1.13,1.13,0,0,0-.69-.18,2.82,2.82,0,0,0-.52,0,3.59,3.59,0,0,0-.47.12,1.28,1.28,0,0,1-.15-.63,4.27,4.27,0,0,1,.59-.14,4.64,4.64,0,0,1,.63,0,1.76,1.76,0,0,1,1.2.36,1.43,1.43,0,0,1,.42,1.15v2.55c-.19,0-.41.09-.68.13a4.28,4.28,0,0,1-.81.07,3,3,0,0,1-.7-.07,1.52,1.52,0,0,1-.53-.23,1,1,0,0,1-.34-.41,1.32,1.32,0,0,1-.12-.59,1.27,1.27,0,0,1,.14-.6,1.21,1.21,0,0,1,.38-.43,1.63,1.63,0,0,1,.55-.25,2.27,2.27,0,0,1,.65-.09h.41l.28,0ZM58,33l-.3,0-.31,0a1.22,1.22,0,0,0-.75.19.6.6,0,0,0-.26.55.69.69,0,0,0,.09.38.57.57,0,0,0,.21.2.75.75,0,0,0,.29.09h.31a2.36,2.36,0,0,0,.37,0L58,34.3Z"/><path class="cls-1" d="M62.63,34.21a1.09,1.09,0,0,1,.11.28,1.27,1.27,0,0,1,0,.34,3,3,0,0,1-1.07.18,1.92,1.92,0,0,1-1.53-.58,2.2,2.2,0,0,1-.52-1.55A2.84,2.84,0,0,1,59.8,32a1.77,1.77,0,0,1,.38-.67,1.71,1.71,0,0,1,.62-.46,2.14,2.14,0,0,1,.87-.16,3.37,3.37,0,0,1,.58,0,2.7,2.7,0,0,1,.49.12,1.33,1.33,0,0,1,0,.32,1.25,1.25,0,0,1-.1.31,2.69,2.69,0,0,0-.89-.13,1.06,1.06,0,0,0-.91.4,1.76,1.76,0,0,0-.3,1.07A1.56,1.56,0,0,0,60.84,34a1.27,1.27,0,0,0,.94.35,3,3,0,0,0,.44,0A2.28,2.28,0,0,0,62.63,34.21Z"/><path class="cls-1" d="M63.86,31.46h-.51s0-.09,0-.15V31q0-.09,0-.15h1.28v4.07a1,1,0,0,1-.19,0h-.38a1.2,1.2,0,0,1-.2,0Zm-.17-1.52a1.23,1.23,0,0,1,0-.2v-.4a1.23,1.23,0,0,1,0-.2l.22,0h.42l.21,0a1.23,1.23,0,0,1,0,.2v.4a1.23,1.23,0,0,1,0,.2,1.18,1.18,0,0,1-.21,0h-.42A1.46,1.46,0,0,1,63.69,29.94Z"/><path class="cls-1" d="M67.48,35a2,2,0,0,1-.83-.16,1.57,1.57,0,0,1-.59-.45,1.93,1.93,0,0,1-.36-.68,3.26,3.26,0,0,1,0-1.68,1.88,1.88,0,0,1,.36-.67,1.6,1.6,0,0,1,.59-.46,2.26,2.26,0,0,1,1.67,0,1.68,1.68,0,0,1,.59.46,1.88,1.88,0,0,1,.36.67,3.26,3.26,0,0,1,0,1.68,1.93,1.93,0,0,1-.36.68,1.66,1.66,0,0,1-.59.45A2,2,0,0,1,67.48,35Zm0-.63a.9.9,0,0,0,.81-.39,2,2,0,0,0,.27-1.11,1.92,1.92,0,0,0-.27-1.1,1,1,0,0,0-1.61,0,2,2,0,0,0-.26,1.1A2.07,2.07,0,0,0,66.68,34,.89.89,0,0,0,67.48,34.38Zm0-4.18-.19,0h-.41l-.18,0,.91-1,.25,0h.52l.23,0Z"/><path class="cls-1" d="M70.33,30.84l.18,0h.33l.16,0c0,.08,0,.19,0,.32s0,.25,0,.34a1.65,1.65,0,0,1,.21-.27,1.31,1.31,0,0,1,.28-.24,1.51,1.51,0,0,1,.36-.18,1.65,1.65,0,0,1,.46-.06,1.27,1.27,0,0,1,1,.4,1.81,1.81,0,0,1,.33,1.18v2.58a1.06,1.06,0,0,1-.2,0h-.39a1.2,1.2,0,0,1-.2,0V32.55a1.51,1.51,0,0,0-.17-.83.62.62,0,0,0-.56-.27,1.25,1.25,0,0,0-.42.08,1.07,1.07,0,0,0-.35.25,1.18,1.18,0,0,0-.24.43,2,2,0,0,0-.09.64v2.06a1.08,1.08,0,0,1-.19,0h-.4a1.2,1.2,0,0,1-.2,0Z"/><path class="cls-1" d="M77.23,33.07a1.33,1.33,0,0,0,.35,1,1.35,1.35,0,0,0,1,.31,3,3,0,0,0,1.07-.2,1.1,1.1,0,0,1,.11.29,2,2,0,0,1,0,.34,2.38,2.38,0,0,1-.57.16,3.73,3.73,0,0,1-.7.06,2.49,2.49,0,0,1-1-.16,1.66,1.66,0,0,1-1-1.1,2.8,2.8,0,0,1-.12-.84,3.24,3.24,0,0,1,.11-.85,1.93,1.93,0,0,1,.36-.68,1.61,1.61,0,0,1,.6-.46,1.87,1.87,0,0,1,.85-.17,1.72,1.72,0,0,1,.74.14,1.49,1.49,0,0,1,.53.39,1.93,1.93,0,0,1,.33.6,2.56,2.56,0,0,1,.11.75,1.85,1.85,0,0,1,0,.23c0,.08,0,.15,0,.21Zm2-.58a1.54,1.54,0,0,0-.06-.43,1.27,1.27,0,0,0-.17-.35.89.89,0,0,0-.3-.24.82.82,0,0,0-.42-.1.91.91,0,0,0-.74.3,1.4,1.4,0,0,0-.32.82Z"/><path class="cls-1" d="M81,30.84l.17,0h.33l.17,0c0,.08,0,.19,0,.32s0,.25,0,.34a1.56,1.56,0,0,1,.2-.27A1.61,1.61,0,0,1,82.2,31a1.82,1.82,0,0,1,.37-.18,1.63,1.63,0,0,1,.45-.06,1.24,1.24,0,0,1,1,.4,1.75,1.75,0,0,1,.34,1.18v2.58a1.2,1.2,0,0,1-.2,0H83.8a1.06,1.06,0,0,1-.2,0V32.55a1.61,1.61,0,0,0-.17-.83.63.63,0,0,0-.56-.27,1.16,1.16,0,0,0-.42.08,1.07,1.07,0,0,0-.35.25,1.18,1.18,0,0,0-.24.43,2,2,0,0,0-.09.64v2.06a1.2,1.2,0,0,1-.2,0h-.39a1.06,1.06,0,0,1-.2,0Z"/><path class="cls-1" d="M88.34,29.91H86.86a.86.86,0,0,1,0-.17c0-.06,0-.13,0-.18s0-.12,0-.18a.86.86,0,0,1,0-.17h3.77l0,.16c0,.06,0,.12,0,.18s0,.12,0,.18,0,.13,0,.18H89.15v5a2.41,2.41,0,0,1-.4,0,2.63,2.63,0,0,1-.41,0Z"/><path class="cls-1" d="M91.33,33.07a1.33,1.33,0,0,0,.34,1,1.35,1.35,0,0,0,1,.31,2.91,2.91,0,0,0,1.07-.2,1.1,1.1,0,0,1,.11.29c0,.11,0,.23.05.34a2.6,2.6,0,0,1-.58.16,3.69,3.69,0,0,1-.69.06,2.51,2.51,0,0,1-1-.16,1.65,1.65,0,0,1-.65-.43,1.77,1.77,0,0,1-.38-.67,2.8,2.8,0,0,1-.12-.84,2.86,2.86,0,0,1,.12-.85,1.76,1.76,0,0,1,.35-.68,1.61,1.61,0,0,1,.6-.46,1.87,1.87,0,0,1,.85-.17,1.72,1.72,0,0,1,.74.14,1.49,1.49,0,0,1,.53.39,1.75,1.75,0,0,1,.33.6,2.56,2.56,0,0,1,.11.75,1.85,1.85,0,0,1,0,.23c0,.08,0,.15,0,.21Zm2-.58a1.54,1.54,0,0,0-.06-.43,1.27,1.27,0,0,0-.17-.35.89.89,0,0,0-.3-.24.82.82,0,0,0-.42-.1.92.92,0,0,0-.74.3,1.4,1.4,0,0,0-.32.82Z"/><path class="cls-1" d="M97.79,34.21a1.09,1.09,0,0,1,.11.28,1.27,1.27,0,0,1,0,.34,3,3,0,0,1-1.07.18,1.92,1.92,0,0,1-1.53-.58,2.25,2.25,0,0,1-.52-1.55A2.84,2.84,0,0,1,95,32a1.92,1.92,0,0,1,.38-.67,1.71,1.71,0,0,1,.62-.46,2.14,2.14,0,0,1,.87-.16,3.37,3.37,0,0,1,.58,0,2.7,2.7,0,0,1,.49.12,1.33,1.33,0,0,1,0,.32.94.94,0,0,1-.1.31,2.69,2.69,0,0,0-.89-.13,1.06,1.06,0,0,0-.91.4,1.76,1.76,0,0,0-.3,1.07A1.56,1.56,0,0,0,96,34a1.27,1.27,0,0,0,.94.35,3,3,0,0,0,.44,0A2.28,2.28,0,0,0,97.79,34.21Z"/><path class="cls-1" d="M98.79,30.84l.17,0h.33l.16,0a2,2,0,0,1,0,.32,2.47,2.47,0,0,1,0,.34,1.56,1.56,0,0,1,.2-.27A1.31,1.31,0,0,1,100,31a1.82,1.82,0,0,1,.37-.18,1.53,1.53,0,0,1,.45-.06,1.26,1.26,0,0,1,1,.4,1.81,1.81,0,0,1,.33,1.18v2.58a.94.94,0,0,1-.2,0h-.39a1.08,1.08,0,0,1-.19,0V32.55a1.5,1.5,0,0,0-.18-.83.6.6,0,0,0-.55-.27,1.16,1.16,0,0,0-.42.08,1,1,0,0,0-.35.25,1.35,1.35,0,0,0-.25.43,2,2,0,0,0-.09.64v2.06a1,1,0,0,1-.19,0H99a1.06,1.06,0,0,1-.2,0Z"/><path class="cls-1" d="M105,35a2,2,0,0,1-.84-.16,1.71,1.71,0,0,1-.94-1.13,3,3,0,0,1,0-1.68,1.72,1.72,0,0,1,.35-.67,1.78,1.78,0,0,1,.59-.46,2,2,0,0,1,.84-.16,2,2,0,0,1,.83.16,1.72,1.72,0,0,1,.6.46,1.86,1.86,0,0,1,.35.67,3,3,0,0,1,0,1.68,1.91,1.91,0,0,1-.35.68,1.69,1.69,0,0,1-.6.45A2,2,0,0,1,105,35Zm0-.63a.92.92,0,0,0,.81-.39,2.07,2.07,0,0,0,.26-1.11,2,2,0,0,0-.26-1.1.92.92,0,0,0-.81-.39.9.9,0,0,0-.81.39,2,2,0,0,0-.26,1.1,2.07,2.07,0,0,0,.26,1.11A.9.9,0,0,0,105,34.38Z"/><path class="cls-1" d="M107.78,29.1a1.2,1.2,0,0,1,.2,0h.39a1.08,1.08,0,0,1,.19,0v4.58a1.08,1.08,0,0,0,0,.35.48.48,0,0,0,.11.2.35.35,0,0,0,.16.09l.19,0h.16l.16,0a2.37,2.37,0,0,1,.07.61,1.64,1.64,0,0,1-.27.05h-.29a1.44,1.44,0,0,1-.43-.06.73.73,0,0,1-.35-.18.87.87,0,0,1-.24-.34,1.36,1.36,0,0,1-.09-.53Z"/><path class="cls-1" d="M111.74,35a2,2,0,0,1-.84-.16,1.66,1.66,0,0,1-.59-.45,1.93,1.93,0,0,1-.36-.68A3.26,3.26,0,0,1,110,32a1.88,1.88,0,0,1,.36-.67,1.68,1.68,0,0,1,.59-.46,2.26,2.26,0,0,1,1.67,0,1.6,1.6,0,0,1,.59.46,1.88,1.88,0,0,1,.36.67,3.26,3.26,0,0,1,0,1.68,1.93,1.93,0,0,1-.36.68,1.57,1.57,0,0,1-.59.45A2,2,0,0,1,111.74,35Zm0-.63a.92.92,0,0,0,.81-.39,2.07,2.07,0,0,0,.26-1.11,2,2,0,0,0-.26-1.1.92.92,0,0,0-.81-.39.9.9,0,0,0-.81.39,2,2,0,0,0-.26,1.1,2.07,2.07,0,0,0,.26,1.11A.9.9,0,0,0,111.74,34.38Z"/><path class="cls-1" d="M116.73,34.39a1.55,1.55,0,0,1,1,.3,1,1,0,0,1,.32.79,1,1,0,0,1-.17.58,1.52,1.52,0,0,1-.46.45,2.17,2.17,0,0,1-.69.28,3.46,3.46,0,0,1-.87.1,2.49,2.49,0,0,1-1.25-.25.88.88,0,0,1-.43-.8,1,1,0,0,1,.18-.59,1.36,1.36,0,0,1,.45-.41.92.92,0,0,1-.26-.26.59.59,0,0,1-.11-.38.94.94,0,0,1,.13-.51,1.39,1.39,0,0,1,.35-.38,1.47,1.47,0,0,1-.42-.47,1.4,1.4,0,0,1-.16-.66,1.47,1.47,0,0,1,.11-.56,1.5,1.5,0,0,1,.33-.46,1.4,1.4,0,0,1,.52-.3,2.22,2.22,0,0,1,1.35,0,2.14,2.14,0,0,1,.5.26,1.37,1.37,0,0,1,.42-.21,2.23,2.23,0,0,1,.6-.08,1.69,1.69,0,0,1,0,.33,1.09,1.09,0,0,1,0,.18,1.11,1.11,0,0,1,0,.19h-.71a1.36,1.36,0,0,1,.13.3,1.3,1.3,0,0,1,0,.36,1.38,1.38,0,0,1-.12.59,1.17,1.17,0,0,1-.34.45,1.63,1.63,0,0,1-.52.29,2.29,2.29,0,0,1-.66.09,2.1,2.1,0,0,1-.58-.07.82.82,0,0,0-.22.2.45.45,0,0,0-.11.28.35.35,0,0,0,.1.25.7.7,0,0,0,.46.11Zm-1.07.63a.66.66,0,0,0-.54.19.67.67,0,0,0-.18.47A.59.59,0,0,0,115,36a.63.63,0,0,0,.21.18.87.87,0,0,0,.31.09,2.38,2.38,0,0,0,.39,0,2,2,0,0,0,1-.21.6.6,0,0,0,.36-.53.45.45,0,0,0-.15-.36.93.93,0,0,0-.56-.14Zm.36-2a.8.8,0,0,0,.64-.24.86.86,0,0,0,.2-.61.91.91,0,0,0-.2-.62.8.8,0,0,0-.64-.24.79.79,0,0,0-.63.24,1,1,0,0,0-.2.62.91.91,0,0,0,.2.61A.79.79,0,0,0,116,33Z"/><path class="cls-1" d="M119.09,31.46h-.51a.61.61,0,0,1,0-.15,1.29,1.29,0,0,1,0-.32.61.61,0,0,1,0-.15h1.29v4.07a1.2,1.2,0,0,1-.2,0h-.38a1.2,1.2,0,0,1-.2,0Zm.31-1.26-.19,0h-.4l-.19,0,.91-1,.25,0h.52l.23,0Z"/><path class="cls-1" d="M123.22,32.23a.77.77,0,0,0-.24-.65,1.13,1.13,0,0,0-.69-.18,2.82,2.82,0,0,0-.52,0,3.74,3.74,0,0,0-.48.12,1.28,1.28,0,0,1-.15-.63,4.43,4.43,0,0,1,.6-.14,4.54,4.54,0,0,1,.63,0,1.76,1.76,0,0,1,1.2.36,1.43,1.43,0,0,1,.42,1.15v2.55c-.19,0-.41.09-.68.13a4.28,4.28,0,0,1-.81.07,3,3,0,0,1-.7-.07,1.52,1.52,0,0,1-.53-.23,1,1,0,0,1-.34-.41,1.32,1.32,0,0,1-.12-.59,1.27,1.27,0,0,1,.14-.6,1.21,1.21,0,0,1,.38-.43,1.58,1.58,0,0,1,.54-.25,2.37,2.37,0,0,1,.65-.09h.42l.28,0Zm0,.77-.31,0-.31,0a1.26,1.26,0,0,0-.75.19.62.62,0,0,0-.25.55.69.69,0,0,0,.08.38.6.6,0,0,0,.22.2.75.75,0,0,0,.29.09h.3a2.48,2.48,0,0,0,.38,0l.35-.05Z"/><path class="cls-1" d="M128.28,34.92h-.43l-.14,0-1.35-4.07.21,0H127l.21,0,1.13,3.79,1.17-3.79.39,0h.2l.22,0-1.58,4.9a4.36,4.36,0,0,1-.23.55,1.3,1.3,0,0,1-.27.36.88.88,0,0,1-.34.19,1.81,1.81,0,0,1-.43,0,2.19,2.19,0,0,1-.36,0,2.29,2.29,0,0,1-.32-.06,1.11,1.11,0,0,1,0-.33,1.9,1.9,0,0,1,.09-.29l.19.06.27,0a.68.68,0,0,0,.2,0,.61.61,0,0,0,.17-.07.54.54,0,0,0,.14-.18,1.07,1.07,0,0,0,.13-.3Z"/><path class="cls-1" d="M132.88,29.21H136a1.83,1.83,0,0,1,0,.35,1.15,1.15,0,0,1,0,.18.88.88,0,0,1,0,.17h-2.32v1.64h1.85l0,.17c0,.06,0,.12,0,.18s0,.12,0,.18l0,.17h-1.85v2h2.39a3.49,3.49,0,0,1,0,.35v.18c0,.06,0,.12,0,.17h-3.2Z"/><path class="cls-1" d="M139.54,29.1a1.06,1.06,0,0,1,.2,0h.38a1.2,1.2,0,0,1,.2,0v5.7a5.74,5.74,0,0,1-.68.15,5.31,5.31,0,0,1-.83.06,3.12,3.12,0,0,1-.82-.11,1.79,1.79,0,0,1-.67-.35,1.68,1.68,0,0,1-.45-.64,2.46,2.46,0,0,1-.17-1,2.56,2.56,0,0,1,.15-.89,2.14,2.14,0,0,1,.42-.7,2,2,0,0,1,.64-.45,2.28,2.28,0,0,1,.84-.16,3,3,0,0,1,.42,0,1.85,1.85,0,0,1,.37.08Zm0,2.43a1.89,1.89,0,0,0-.34-.09,2.6,2.6,0,0,0-.4,0,1.33,1.33,0,0,0-.56.11,1.16,1.16,0,0,0-.4.33,1.48,1.48,0,0,0-.23.49,2.37,2.37,0,0,0-.07.61,1.41,1.41,0,0,0,.35,1.08,1.35,1.35,0,0,0,1,.33l.38,0a1.42,1.42,0,0,0,.31-.06Z"/><path class="cls-1" d="M141.45,30.84l.2,0H142l.2,0v2.23a2.19,2.19,0,0,0,.07.63,1,1,0,0,0,.21.4.87.87,0,0,0,.35.2,2.28,2.28,0,0,0,.48.05,2.31,2.31,0,0,0,.69-.09V30.84l.19,0h.39l.2,0v3.95l-.67.15a4.07,4.07,0,0,1-.79.07,3.51,3.51,0,0,1-.74-.07,1.35,1.35,0,0,1-.61-.27,1.41,1.41,0,0,1-.41-.58,2.71,2.71,0,0,1-.15-1Z"/><path class="cls-1" d="M148.69,34.21a1.09,1.09,0,0,1,.11.28,1.86,1.86,0,0,1,.06.34,3,3,0,0,1-1.07.18,2,2,0,0,1-1.54-.58,2.25,2.25,0,0,1-.51-1.55,2.84,2.84,0,0,1,.12-.84,1.92,1.92,0,0,1,.38-.67,1.89,1.89,0,0,1,.62-.46,2.14,2.14,0,0,1,.87-.16,3.49,3.49,0,0,1,.59,0,2.41,2.41,0,0,1,.48.12,2,2,0,0,1,0,.32,1.89,1.89,0,0,1-.1.31,2.73,2.73,0,0,0-.89-.13,1.08,1.08,0,0,0-.92.4,1.76,1.76,0,0,0-.3,1.07A1.61,1.61,0,0,0,146.9,34a1.27,1.27,0,0,0,.94.35,2.94,2.94,0,0,0,.44,0A2.08,2.08,0,0,0,148.69,34.21Z"/><path class="cls-1" d="M151.84,32.23a.77.77,0,0,0-.24-.65,1.09,1.09,0,0,0-.69-.18,3,3,0,0,0-.52,0,3.59,3.59,0,0,0-.47.12,1.28,1.28,0,0,1-.15-.63,3.76,3.76,0,0,1,1.22-.18,1.8,1.8,0,0,1,1.21.36,1.43,1.43,0,0,1,.41,1.15v2.55c-.18,0-.41.09-.67.13a4.43,4.43,0,0,1-.81.07,3,3,0,0,1-.7-.07,1.66,1.66,0,0,1-.54-.23,1.11,1.11,0,0,1-.33-.41,1.32,1.32,0,0,1-.12-.59,1.16,1.16,0,0,1,.14-.6,1.18,1.18,0,0,1,.37-.43,1.63,1.63,0,0,1,.55-.25,2.32,2.32,0,0,1,.65-.09h.42l.27,0Zm0,.77-.3,0-.31,0a1.22,1.22,0,0,0-.75.19.63.63,0,0,0-.26.55.69.69,0,0,0,.09.38.6.6,0,0,0,.22.2.7.7,0,0,0,.29.09h.3a2.48,2.48,0,0,0,.38,0l.34-.05Z"/><path class="cls-1" d="M156.43,34.21a1.09,1.09,0,0,1,.11.28,1.86,1.86,0,0,1,.06.34,3,3,0,0,1-1.07.18,2,2,0,0,1-1.54-.58,2.25,2.25,0,0,1-.51-1.55,2.84,2.84,0,0,1,.12-.84,2.09,2.09,0,0,1,.38-.67,1.83,1.83,0,0,1,.63-.46,2.06,2.06,0,0,1,.86-.16,3.49,3.49,0,0,1,.59,0,2.41,2.41,0,0,1,.48.12,2,2,0,0,1,0,.32,1.89,1.89,0,0,1-.1.31,2.73,2.73,0,0,0-.89-.13,1.05,1.05,0,0,0-.91.4,1.7,1.7,0,0,0-.31,1.07,1.61,1.61,0,0,0,.34,1.12,1.27,1.27,0,0,0,.94.35,2.94,2.94,0,0,0,.44,0A2.08,2.08,0,0,0,156.43,34.21Z"/><path class="cls-1" d="M157.67,31.46h-.52a.61.61,0,0,1,0-.15,1.29,1.29,0,0,1,0-.32.61.61,0,0,1,0-.15h1.29v4.07a1.08,1.08,0,0,1-.19,0h-.39a1.08,1.08,0,0,1-.19,0Zm-.17-1.52a.65.65,0,0,1,0-.2,2,2,0,0,1,0-.4.65.65,0,0,1,0-.2l.22,0h.41l.21,0a1.23,1.23,0,0,1,0,.2,2,2,0,0,1,0,.4,1.23,1.23,0,0,1,0,.2,1.18,1.18,0,0,1-.21,0h-.41A1.3,1.3,0,0,1,157.5,29.94Z"/><path class="cls-1" d="M161.29,35a1.92,1.92,0,0,1-.83-.16,1.69,1.69,0,0,1-.6-.45,1.76,1.76,0,0,1-.35-.68,3,3,0,0,1,0-1.68,1.75,1.75,0,0,1,1-1.13,2.23,2.23,0,0,1,1.66,0,1.75,1.75,0,0,1,.95,1.13,3,3,0,0,1,0,1.68,1.76,1.76,0,0,1-.35.68,1.69,1.69,0,0,1-.6.45A1.92,1.92,0,0,1,161.29,35Zm0-.63a.91.91,0,0,0,.81-.39,2.07,2.07,0,0,0,.26-1.11,2,2,0,0,0-.26-1.1,1,1,0,0,0-1.62,0,2,2,0,0,0-.25,1.1,2.07,2.07,0,0,0,.25,1.11A.91.91,0,0,0,161.29,34.38Zm.05-4.18-.19,0h-.41l-.19,0,.91-1,.25,0h.52l.23,0Z"/><path class="cls-1" d="M164.14,30.84l.17,0h.33l.17,0c0,.08,0,.19,0,.32a2.47,2.47,0,0,1,0,.34,1.56,1.56,0,0,1,.2-.27,1.61,1.61,0,0,1,.28-.24,1.82,1.82,0,0,1,.37-.18,1.63,1.63,0,0,1,.45-.06,1.24,1.24,0,0,1,1,.4,1.8,1.8,0,0,1,.34,1.18v2.58a1.2,1.2,0,0,1-.2,0H167a1.08,1.08,0,0,1-.19,0V32.55a1.5,1.5,0,0,0-.18-.83.6.6,0,0,0-.55-.27,1.16,1.16,0,0,0-.42.08,1.07,1.07,0,0,0-.35.25,1.18,1.18,0,0,0-.24.43,2,2,0,0,0-.09.64v2.06a1.2,1.2,0,0,1-.2,0h-.39a1.06,1.06,0,0,1-.2,0Z"/></g></g></svg>