<svg xmlns="http://www.w3.org/2000/svg" viewBox="0 0 152.85 61.21"><defs><style>.cls-1{fill:#fff;}</style></defs><title>Asset 3</title><g id="Layer_2" data-name="Layer 2"><g id="Capa_1" data-name="Capa 1"><path class="cls-1" d="M35.92,41a30.74,30.74,0,0,1-16.14,4.86A12,12,0,0,1,19.64,43c.09-1.81,1.08-1.3,1.8-2.73a11.74,11.74,0,0,0,.88-2.09s-.47-8.72-.6-12.4c-.06-2-.43-5.29-.87-8.5-.26-1.91-.84-3.42-1.11-5.22-.38-2.62-.83-5.56-.83-5.56a58,58,0,0,0-1.25,7.45c-.22,1.69-.44,3.47-.65,5.13C16.57,22.56,15.47,32,15.3,32.49c-.25.78-.28-.2-.28-.2s.65-9.88.85-14.22c.1-2.12.26-4.45.52-6.68a46.55,46.55,0,0,1,.79-4.75s1.13-3.41,1.49-3.48,1.67,2.15,2.11,4.13c1,4.46,1.59,5,2.35,9.73.72,4.45,1.38,8.18,1.47,8.79a55.16,55.16,0,0,1-.39,11.86,2.29,2.29,0,0,1-.67,1.53,6.1,6.1,0,0,0-2,3.44c0,.91-.15.89.06,1.42,0,0,1.52,2.26,10.22-2.92a5.42,5.42,0,0,0,2.72-4.57V4.78S26,1.86,19.31,1.86s-15,2.91-15,2.91V36.43c0,1.94.29,5.6,3.07,6.85,0,0-7.41-2.54-7.41-6.89V2.08S11.31,0,19.31,0,38.82,2.08,38.82,2.08V36.43C38.82,39.39,35.92,41,35.92,41Z"/><path class="cls-1" d="M143.41,14.39a6.58,6.58,0,0,1-3.19.66,4,4,0,0,1-3.14-1.22A4.83,4.83,0,0,1,136,10.42a5.19,5.19,0,0,1,1.12-3.51A3.64,3.64,0,0,1,140,5.65a4.6,4.6,0,0,1,1.37.18V2.13h2.07Zm-2.07-.87V6.94a3.26,3.26,0,0,0-.92-.12q-2.4,0-2.4,3.48c0,2.28.75,3.43,2.25,3.43A2,2,0,0,0,141.34,13.52Z"/><path class="cls-1" d="M152.84,10.25l-5.59.81c.16,1.7,1,2.55,2.49,2.55a5.1,5.1,0,0,0,2.31-.5l.49,1.3a6.23,6.23,0,0,1-3,.64,4,4,0,0,1-3.11-1.24,5,5,0,0,1-1.13-3.52,5.23,5.23,0,0,1,1-3.47,3.54,3.54,0,0,1,2.86-1.25A3.33,3.33,0,0,1,152,6.77,5.15,5.15,0,0,1,152.84,10.25Zm-1.93-.81c0-1.73-.6-2.6-1.8-2.6a1.65,1.65,0,0,0-1.46.77,4.19,4.19,0,0,0-.53,2.41Z"/><path class="cls-1" d="M48.79,39.28H45.54V19.21h3.25Z"/><path class="cls-1" d="M63.76,32.12a8.63,8.63,0,0,1-1.47,5.29,5.8,5.8,0,0,1-9,0,8.63,8.63,0,0,1-1.47-5.29,8.72,8.72,0,0,1,1.47-5.32,5.81,5.81,0,0,1,9,0A8.72,8.72,0,0,1,63.76,32.12Zm-3.22,0c0-3.58-.92-5.38-2.74-5.38s-2.74,1.8-2.74,5.38.91,5.23,2.74,5.23S60.54,35.59,60.54,32.1Z"/><path class="cls-1" d="M74.88,35.15a4,4,0,0,1-1.41,3.08,5.26,5.26,0,0,1-3.7,1.28,6.89,6.89,0,0,1-4-1l.85-2.08a4.14,4.14,0,0,0,2.69.83,2.23,2.23,0,0,0,1.59-.57,1.9,1.9,0,0,0,.62-1.45,2,2,0,0,0-.48-1.42,4.26,4.26,0,0,0-1.62-.95q-3.27-1.25-3.27-4a3.89,3.89,0,0,1,1.26-2.95,4.55,4.55,0,0,1,3.28-1.2,6.59,6.59,0,0,1,3.72,1l-.8,1.89a3.45,3.45,0,0,0-2.28-.8,2,2,0,0,0-1.5.54,1.82,1.82,0,0,0-.54,1.34c0,.94.71,1.7,2.12,2.26C73.74,31.85,74.88,33.25,74.88,35.15Z"/><path class="cls-1" d="M98.82,39.28H95L93.5,34.16H87.08l-1.59,5.12H82.2l6.59-19.89h3.47ZM93,32l-2-7a12.69,12.69,0,0,1-.52-2.4h-.06c-.1.52-.28,1.32-.55,2.4l-2.14,7Z"/><path class="cls-1" d="M112.16,39.28h-3.24V29.12q0-2.4-2.58-2.4a6.1,6.1,0,0,0-2.23.4V39.28h-3.25V25.71a13.23,13.23,0,0,1,5.61-1A6.34,6.34,0,0,1,110.91,26a3.86,3.86,0,0,1,1.25,3.06Z"/><path class="cls-1" d="M126.79,38.5a10.3,10.3,0,0,1-5,1,6.33,6.33,0,0,1-4.92-1.92,7.61,7.61,0,0,1-1.76-5.34,8.19,8.19,0,0,1,1.76-5.51,5.67,5.67,0,0,1,4.52-2,7.55,7.55,0,0,1,2.15.27v-5.8h3.25Zm-3.25-1.35V26.83a5.23,5.23,0,0,0-1.43-.18q-3.78,0-3.78,5.44c0,3.59,1.18,5.37,3.54,5.37A3.28,3.28,0,0,0,123.54,37.15Z"/><path class="cls-1" d="M141.56,32l-8.78,1.27c.26,2.66,1.57,4,3.91,4a7.63,7.63,0,0,0,3.61-.8l.77,2.05a9.76,9.76,0,0,1-4.73,1,6.28,6.28,0,0,1-4.86-1.94,7.89,7.89,0,0,1-1.78-5.53,8.23,8.23,0,0,1,1.63-5.44,5.53,5.53,0,0,1,4.48-1.95,5.22,5.22,0,0,1,4.36,1.87A8.19,8.19,0,0,1,141.56,32Zm-3-1.28q0-4.06-2.82-4.07a2.6,2.6,0,0,0-2.29,1.2,6.52,6.52,0,0,0-.82,3.78Z"/><path class="cls-1" d="M152.71,35.15a4,4,0,0,1-1.41,3.08,5.27,5.27,0,0,1-3.7,1.28,7,7,0,0,1-4-1l.85-2.08a4.15,4.15,0,0,0,2.69.83,2.25,2.25,0,0,0,1.6-.57,1.9,1.9,0,0,0,.61-1.45,2,2,0,0,0-.48-1.42,4.26,4.26,0,0,0-1.62-.95q-3.27-1.25-3.27-4a3.89,3.89,0,0,1,1.26-2.95,4.6,4.6,0,0,1,3.29-1.2,6.59,6.59,0,0,1,3.72,1l-.8,1.89a3.47,3.47,0,0,0-2.28-.8,2,2,0,0,0-1.5.54,1.83,1.83,0,0,0-.55,1.34c0,.94.71,1.7,2.13,2.26C151.56,31.85,152.71,33.25,152.71,35.15Z"/><path class="cls-1" d="M62.66,14.91H60.59V8.43c0-1-.54-1.52-1.64-1.52a3.87,3.87,0,0,0-1.43.25v7.75H55.46V6.26A8.43,8.43,0,0,1,59,5.6a4,4,0,0,1,2.83.85,2.44,2.44,0,0,1,.8,2Z"/><path class="cls-1" d="M67.12,3.17a1,1,0,0,1-.33.72,1.18,1.18,0,0,1-.81.3,1.16,1.16,0,0,1-.81-.3.94.94,0,0,1-.33-.72,1,1,0,0,1,.33-.73,1.23,1.23,0,0,1,1.62,0A1,1,0,0,1,67.12,3.17ZM67,14.91H64.94V5.77H67Z"/><path class="cls-1" d="M76.42,5.77l-2.93,9.14h-2l-3-9.14h2.2l1.61,5.9a5.4,5.4,0,0,1,.22,1.25h0c0-.32.13-.74.24-1.25l1.64-5.9Z"/><path class="cls-1" d="M85.09,10.28l-5.6.81c.17,1.7,1,2.54,2.5,2.54a5,5,0,0,0,2.31-.5l.49,1.31a6.23,6.23,0,0,1-3,.64,4,4,0,0,1-3.11-1.24,5,5,0,0,1-1.14-3.52,5.21,5.21,0,0,1,1-3.47A3.53,3.53,0,0,1,81.43,5.6a3.33,3.33,0,0,1,2.78,1.2A5.2,5.2,0,0,1,85.09,10.28Zm-1.93-.81c0-1.73-.6-2.6-1.8-2.6a1.65,1.65,0,0,0-1.46.77,4.08,4.08,0,0,0-.53,2.4Z"/><path class="cls-1" d="M91.38,5.61,91,7.13A2.75,2.75,0,0,0,90,7a2.07,2.07,0,0,0-1,.22v7.72H87V6.26A9.82,9.82,0,0,1,91.38,5.61Z"/><path class="cls-1" d="M98,12.29a2.55,2.55,0,0,1-.9,2,3.34,3.34,0,0,1-2.36.82,4.37,4.37,0,0,1-2.52-.66l.54-1.33a2.61,2.61,0,0,0,1.71.53,1.41,1.41,0,0,0,1-.37,1.2,1.2,0,0,0,.39-.92,1.31,1.31,0,0,0-.3-.91,2.73,2.73,0,0,0-1-.6,2.7,2.7,0,0,1-2.08-2.56,2.49,2.49,0,0,1,.8-1.88,2.94,2.94,0,0,1,2.1-.77,4.25,4.25,0,0,1,2.37.65l-.51,1.2a2.24,2.24,0,0,0-1.46-.51,1.29,1.29,0,0,0-1,.35,1.15,1.15,0,0,0-.34.85c0,.6.45,1.08,1.35,1.45Q98,10.48,98,12.29Z"/><path class="cls-1" d="M102,3.17a.94.94,0,0,1-.33.72,1.23,1.23,0,0,1-1.61,0,.94.94,0,0,1-.33-.72,1,1,0,0,1,.33-.73,1.21,1.21,0,0,1,1.61,0A1,1,0,0,1,102,3.17Zm-.11,11.74H99.85V5.77h2.06Z"/><path class="cls-1" d="M111.31,14.42a6.61,6.61,0,0,1-3.19.66A4.06,4.06,0,0,1,105,13.86a4.85,4.85,0,0,1-1.12-3.41A5.24,5.24,0,0,1,105,6.93a3.65,3.65,0,0,1,2.89-1.25,5,5,0,0,1,1.37.17V2.16h2.07Zm-2.07-.87V7a3.26,3.26,0,0,0-.92-.12c-1.6,0-2.41,1.16-2.41,3.48s.76,3.43,2.26,3.43A2,2,0,0,0,109.24,13.55Z"/><path class="cls-1" d="M120.11,14.42a7,7,0,0,1-3.3.66q-3.74,0-3.73-2.78a2.67,2.67,0,0,1,1.51-2.49,9.83,9.83,0,0,1,3.59-.88V8.44c0-1-.61-1.51-1.81-1.51a5.23,5.23,0,0,0-2.29.55L113.6,6.3a7,7,0,0,1,3.14-.7q3.38,0,3.37,3.16Zm-1.93-.74V9.91a5.79,5.79,0,0,0-2.3.63,1.83,1.83,0,0,0-.85,1.69c0,1.13.64,1.7,1.91,1.7A2.74,2.74,0,0,0,118.18,13.68Z"/><path class="cls-1" d="M129.43,14.42a6.58,6.58,0,0,1-3.19.66,4.06,4.06,0,0,1-3.14-1.22A4.85,4.85,0,0,1,122,10.45a5.29,5.29,0,0,1,1.12-3.52A3.66,3.66,0,0,1,126,5.68a5,5,0,0,1,1.37.17V2.16h2.07Zm-2.07-.87V7a3.23,3.23,0,0,0-.91-.12C124.84,6.85,124,8,124,10.33s.75,3.43,2.25,3.43A2,2,0,0,0,127.36,13.55Z"/><path class="cls-1" d="M45.51,2.18h2.21V12c0,1.09.58,1.63,1.74,1.63A4.11,4.11,0,0,0,51,13.37V2.18h2.19V14.32a8.9,8.9,0,0,1-3.8.7,4.32,4.32,0,0,1-3-.9,2.64,2.64,0,0,1-.85-2.07Z"/><path class="cls-1" d="M50,51.34H47.45v2.54H49.7v1H47.45v3.79H45.91V50.31H50Z"/><path class="cls-1" d="M55.32,58.36a4.63,4.63,0,0,1-2.18.44q-2.46,0-2.46-1.83a1.83,1.83,0,0,1,1.18-1.74,7,7,0,0,1,2.19-.49v-.32c0-.67-.4-1-1.2-1a3.39,3.39,0,0,0-1.51.37L51,53a4.62,4.62,0,0,1,2.07-.46c1.48,0,2.22.69,2.22,2.08Zm-1.27-.49V55.39a4.3,4.3,0,0,0-1.42.35A1.22,1.22,0,0,0,52,56.92c0,.75.42,1.12,1.27,1.12A1.87,1.87,0,0,0,54.05,57.87Z"/><path class="cls-1" d="M60.34,58.39a2.09,2.09,0,0,1-1.42.41,2,2,0,0,1-1.84-1,3.86,3.86,0,0,1-.54-2.12,3.78,3.78,0,0,1,.55-2.12,2.05,2.05,0,0,1,1.84-1,2.14,2.14,0,0,1,1.4.41l-.29.77a1.31,1.31,0,0,0-.8-.24c-.88,0-1.32.72-1.32,2.15a3.62,3.62,0,0,0,.24,1.4,1.12,1.12,0,0,0,1.05.78,1.25,1.25,0,0,0,.82-.27Z"/><path class="cls-1" d="M66.07,58.33a5,5,0,0,1-2.32.48c-1.56,0-2.33-.68-2.33-2V52.66h1.37v4.19a.9.9,0,0,0,1,1,1.8,1.8,0,0,0,.89-.2v-5h1.38Z"/><path class="cls-1" d="M69,58.69H67.58V50.22H69Z"/><path class="cls-1" d="M73.14,58.63a1.71,1.71,0,0,1-.69.12,1.64,1.64,0,0,1-1.21-.43,1.56,1.56,0,0,1-.44-1.2V53.53h-.68v-.87h.68v-2l1.37-.38v2.39h1v.87h-1v3.53c0,.52.22.78.65.78a1,1,0,0,0,.32-.06Z"/><path class="cls-1" d="M78.64,58.36a4.63,4.63,0,0,1-2.18.44Q74,58.8,74,57a1.83,1.83,0,0,1,1.18-1.74,7,7,0,0,1,2.19-.49v-.32c0-.67-.4-1-1.2-1a3.39,3.39,0,0,0-1.51.37L74.35,53a4.62,4.62,0,0,1,2.07-.46c1.48,0,2.22.69,2.22,2.08Zm-1.27-.49V55.39a4.3,4.3,0,0,0-1.42.35,1.22,1.22,0,0,0-.67,1.18c0,.75.42,1.12,1.27,1.12A1.87,1.87,0,0,0,77.37,57.87Z"/><path class="cls-1" d="M84.74,58.32a4.39,4.39,0,0,1-2.11.43,2.62,2.62,0,0,1-2.11-.85,3.26,3.26,0,0,1-.69-2.2,3.61,3.61,0,0,1,.63-2.2,2.36,2.36,0,0,1,2-1,3.35,3.35,0,0,1,.9.11V50.18h1.38Zm-1.38-.57V53.4a2.23,2.23,0,0,0-.6-.08c-1.05,0-1.58.77-1.58,2.3s.49,2.26,1.48,2.26A1.35,1.35,0,0,0,83.36,57.75Z"/><path class="cls-1" d="M93.92,58.32a4.39,4.39,0,0,1-2.11.43,2.61,2.61,0,0,1-2.11-.85A3.26,3.26,0,0,1,89,55.7a3.61,3.61,0,0,1,.63-2.2,2.36,2.36,0,0,1,2-1,3.35,3.35,0,0,1,.9.11V50.18h1.38Zm-1.38-.57V53.4a2.23,2.23,0,0,0-.6-.08c-1,0-1.58.77-1.58,2.3s.49,2.26,1.48,2.26A1.35,1.35,0,0,0,92.54,57.75Z"/><path class="cls-1" d="M100.17,55.64l-3.7.53c.12,1.13.66,1.69,1.65,1.69a3.19,3.19,0,0,0,1.52-.35l.32.87a4.11,4.11,0,0,1-2,.42,2.61,2.61,0,0,1-2.12-.89,3.49,3.49,0,0,1-.67-2.25,3.65,3.65,0,0,1,.59-2.17,2.28,2.28,0,0,1,2-.94,2.14,2.14,0,0,1,1.93.92A3.59,3.59,0,0,1,100.17,55.64Zm-1.28-.54c0-1.15-.39-1.72-1.18-1.72a1.12,1.12,0,0,0-1.09.72,3.13,3.13,0,0,0-.22,1.38Z"/><path class="cls-1" d="M106,58.69h-1.57V50.27H106Z"/><path class="cls-1" d="M112.26,58.69h-1.37V54.42c0-.67-.36-1-1.08-1a2.47,2.47,0,0,0-.92.17v5.11h-1.38V53a5.43,5.43,0,0,1,2.36-.44,3,3,0,0,1,1.64.39,1.61,1.61,0,0,1,.75,1.45Z"/><path class="cls-1" d="M118.38,58.78a2.4,2.4,0,0,1-.65,1.8,2.5,2.5,0,0,1-1.82.63,4.12,4.12,0,0,1-2.06-.42l.38-.89a3,3,0,0,0,1.44.35,1.21,1.21,0,0,0,1.39-1.35v-.38a2.19,2.19,0,0,1-1.13.23,2.15,2.15,0,0,1-1.85-.9,3.42,3.42,0,0,1-.58-2,3.57,3.57,0,0,1,.71-2.34,2.7,2.7,0,0,1,2.21-.92,3.54,3.54,0,0,1,2,.44Zm-1.32-1V53.49a1.47,1.47,0,0,0-.71-.13c-1,0-1.49.79-1.49,2.38s.47,2.22,1.43,2.22A1.49,1.49,0,0,0,117.06,57.77Z"/><path class="cls-1" d="M124.58,55.64l-3.69.53c.11,1.13.66,1.69,1.65,1.69a3.22,3.22,0,0,0,1.52-.35l.32.87a4.14,4.14,0,0,1-2,.42,2.61,2.61,0,0,1-2.12-.89,3.49,3.49,0,0,1-.67-2.25,3.58,3.58,0,0,1,.59-2.17,2.26,2.26,0,0,1,2-.94,2.15,2.15,0,0,1,1.93.92A3.67,3.67,0,0,1,124.58,55.64Zm-1.27-.54c0-1.15-.4-1.72-1.19-1.72a1.11,1.11,0,0,0-1.08.72,3.12,3.12,0,0,0-.23,1.38Z"/><path class="cls-1" d="M130.57,58.69H129.2V54.42c0-.67-.36-1-1.07-1a2.52,2.52,0,0,0-.93.17v5.11h-1.38V53a5.43,5.43,0,0,1,2.36-.44,3.05,3.05,0,0,1,1.65.39,1.61,1.61,0,0,1,.74,1.45Z"/><path class="cls-1" d="M133.5,51a.58.58,0,0,1-.22.48.77.77,0,0,1-.53.19.76.76,0,0,1-.52-.19A.58.58,0,0,1,132,51a.64.64,0,0,1,.22-.49.76.76,0,0,1,.52-.19.77.77,0,0,1,.53.19A.61.61,0,0,1,133.5,51Zm-.06,7.74h-1.38v-6h1.38Z"/><path class="cls-1" d="M139.7,55.64l-3.69.53c.11,1.13.66,1.69,1.64,1.69a3.19,3.19,0,0,0,1.52-.35l.33.87a4.16,4.16,0,0,1-2,.42,2.61,2.61,0,0,1-2.13-.89,3.49,3.49,0,0,1-.67-2.25,3.65,3.65,0,0,1,.59-2.17,2.28,2.28,0,0,1,2-.94,2.17,2.17,0,0,1,1.94.92A3.67,3.67,0,0,1,139.7,55.64Zm-1.28-.54c0-1.15-.39-1.72-1.18-1.72a1.12,1.12,0,0,0-1.09.72,3.13,3.13,0,0,0-.22,1.38Z"/><path class="cls-1" d="M143.85,52.56l-.27,1a1.87,1.87,0,0,0-.62-.1,1.28,1.28,0,0,0-.65.14v5.09h-1.37V53A6.41,6.41,0,0,1,143.85,52.56Z"/><path class="cls-1" d="M146.9,50.48,145.53,52h-.75l.78-1.57a1.46,1.46,0,0,1,.78-.2C146.64,50.25,146.83,50.33,146.9,50.48Zm-.74,8.21h-1.38v-6h1.38Z"/><path class="cls-1" d="M152,58.36a4.66,4.66,0,0,1-2.18.44q-2.46,0-2.46-1.83a1.84,1.84,0,0,1,1.17-1.74,7.13,7.13,0,0,1,2.19-.49v-.32c0-.67-.4-1-1.19-1a3.36,3.36,0,0,0-1.51.37l-.32-.78a4.62,4.62,0,0,1,2.07-.46c1.49,0,2.23.69,2.23,2.08Zm-1.28-.49V55.39a4.23,4.23,0,0,0-1.41.35,1.23,1.23,0,0,0-.68,1.18c0,.75.43,1.12,1.27,1.12A1.84,1.84,0,0,0,150.73,57.87Z"/></g></g></svg>